<?xml version="1.0" standalone="no"?>
<!DOCTYPE svg PUBLIC "-//W3C//DTD SVG 20010904//EN"
 "http://www.w3.org/TR/2001/REC-SVG-20010904/DTD/svg10.dtd">
<svg version="1.0" xmlns="http://www.w3.org/2000/svg"
 width="138.000000pt" height="133.000000pt" viewBox="0 0 138.000000 133.000000"
 preserveAspectRatio="xMidYMid meet">

<g transform="translate(0.000000,133.000000) scale(0.100000,-0.100000)"
fill="rgba(255, 255, 255, 0.3)" stroke="none">
<path d="M552 1266 c-130 -34 -266 -121 -346 -223 -158 -200 -181 -471 -61
-688 70 -125 199 -236 330 -284 33 -12 69 -28 80 -35 27 -17 162 -29 170 -15
5 7 14 4 26 -7 13 -11 19 -13 19 -5 0 7 6 11 12 9 7 -3 21 4 32 14 11 10 25
17 30 16 14 -2 32 6 125 49 108 51 223 168 280 283 52 107 75 210 68 310 -5
73 -41 210 -55 210 -4 0 -30 -10 -58 -21 l-52 -22 15 -41 c8 -23 17 -84 20
-136 6 -109 -12 -196 -55 -270 -34 -59 -127 -156 -178 -186 -146 -86 -334 -93
-491 -17 -74 35 -179 140 -216 213 -80 163 -71 368 24 510 72 106 187 187 299
208 74 15 234 8 290 -12 58 -20 70 -20 70 2 0 9 9 32 21 51 24 40 23 42 -71
72 -82 27 -251 34 -328 15z"/>
<path d="M1081 1134 c-40 -33 -43 -83 -6 -119 28 -29 54 -31 94 -10 60 30 57
115 -4 143 -37 17 -50 15 -84 -14z"/>
<path d="M585 778 c-7 -162 -1 -198 34 -217 11 -6 80 -11 160 -11 l141 0 0 66
0 66 -102 -4 -103 -3 1 100 c1 55 3 111 5 125 4 24 2 25 -62 28 l-67 3 -7
-153z"/>
</g>
</svg>
